<svg id="Laag_1" data-name="Laag 1" xmlns="http://www.w3.org/2000/svg" viewBox="0 0 79.07 61.74"><path d="M64.33,41.65c-3.93-4.53-9-7-14.33-7s-10.4,2.49-14.33,7a.5.5,0,0,1-.76-.66C39,36.25,44.39,33.63,50,33.63S61,36.25,65.09,41a.5.5,0,0,1-.76.66ZM50,26.78c-7.9,0-15.3,3.67-20.85,10.32a.5.5,0,0,0,.77.64c5.36-6.42,12.49-10,20.08-10s14.65,3.5,20,9.85a.5.5,0,0,0,.77-.64C65.22,30.41,57.85,26.78,50,26.78ZM23.45,33.34c6.8-8.4,16.48-13.21,26.55-13.21s19.75,4.81,26.55,13.21a.52.52,0,0,0,.71.07.5.5,0,0,0,.07-.7c-7-8.63-16.95-13.58-27.33-13.58S29.66,24.08,22.67,32.71a.5.5,0,0,0,.07.7.52.52,0,0,0,.71-.07Zm39.23,47a.5.5,0,0,1-.5.5H37.82a.5.5,0,0,1-.5-.5h0A12.69,12.69,0,0,1,47,68.07a7.76,7.76,0,1,1,6.06,0A12.69,12.69,0,0,1,62.68,80.37ZM50,67.69a6.76,6.76,0,1,0-6.75-6.76h0A6.76,6.76,0,0,0,50,67.69ZM61.67,79.87a11.68,11.68,0,0,0-23.34,0Zm27.86-4.64a.5.5,0,0,1-.5.5H64.67a.5.5,0,0,1-.5-.5,12.71,12.71,0,0,1,9.65-12.31,7.76,7.76,0,1,1,6.06,0A12.71,12.71,0,0,1,89.53,75.23ZM76.85,62.54a6.75,6.75,0,1,0-6.75-6.75h0A6.75,6.75,0,0,0,76.85,62.54ZM88.52,74.73a11.68,11.68,0,0,0-23.34,0Zm-52.69.5a.5.5,0,0,1-.5.5H11a.5.5,0,0,1-.5-.5,12.71,12.71,0,0,1,9.65-12.31,7.75,7.75,0,1,1,6.06,0A12.71,12.71,0,0,1,35.83,75.23ZM23.15,62.54a6.75,6.75,0,1,0-6.75-6.75h0A6.75,6.75,0,0,0,23.15,62.54ZM34.82,74.73a11.68,11.68,0,0,0-23.34,0Z" transform="translate(-10.47 -19.13)"/></svg>