<svg id="Laag_1" data-name="Laag 1" xmlns="http://www.w3.org/2000/svg" viewBox="0 0 329.13 114.01"><defs><style>.cls-1{fill:#fff;}</style></defs><path class="cls-1" d="M344.21,265.59a24.22,24.22,0,0,1,2-9.72,24.85,24.85,0,0,1,5.38-7.93,25.58,25.58,0,0,1,8-5.35,25.26,25.26,0,0,1,19.51,0,25.33,25.33,0,0,1,8,5.35,25.87,25.87,0,0,1,5.38,7.93,24.71,24.71,0,0,1,0,19.43,25.05,25.05,0,0,1-13.35,13.22,25.38,25.38,0,0,1-19.51,0,25.85,25.85,0,0,1-8-5.32,24.4,24.4,0,0,1-5.38-7.9A24.14,24.14,0,0,1,344.21,265.59Zm9.51,0a16.36,16.36,0,0,0,1.22,6.32,16.08,16.08,0,0,0,3.36,5.18,15.83,15.83,0,0,0,5,3.46,15.24,15.24,0,0,0,12.09,0,15.83,15.83,0,0,0,5-3.46,16.25,16.25,0,0,0,3.36-5.18,17,17,0,0,0,0-12.65,16.2,16.2,0,0,0-8.32-8.67,14.81,14.81,0,0,0-12.09,0,16.28,16.28,0,0,0-5,3.5,16,16,0,0,0-3.36,5.17A16.37,16.37,0,0,0,353.72,265.59Z" transform="translate(-256.38 -240.63)"/><path class="cls-1" d="M456.86,288.2a1.75,1.75,0,0,1-1.28.53h-7.5a2.43,2.43,0,0,1-1.12-.35c-.42-.24-.54-.35-.35-.35l-12.19-15-12.83,15a1.68,1.68,0,0,1-1.47.7H413a1.72,1.72,0,0,1-1.28-.53,1.75,1.75,0,0,1-.52-1.29V244.27a1.87,1.87,0,0,1,.52-1.33,1.67,1.67,0,0,1,1.28-.56h5.55a1.69,1.69,0,0,1,1.28.56,1.87,1.87,0,0,1,.52,1.33v30.89l13-13.7a1.76,1.76,0,0,1,2.8.07l12.05,13.28V244.27a1.92,1.92,0,0,1,.52-1.33,1.71,1.71,0,0,1,1.29-.56h5.55a1.71,1.71,0,0,1,1.28.56,1.87,1.87,0,0,1,.52,1.33v42.64A1.75,1.75,0,0,1,456.86,288.2Z" transform="translate(-256.38 -240.63)"/><path class="cls-1" d="M521.69,282.29a23.75,23.75,0,0,1-7.48,5.39,21.92,21.92,0,0,1-9.23,1.95,21.66,21.66,0,0,1-9-1.89,23.44,23.44,0,0,1-7.34-5.14,24.1,24.1,0,0,1-5-7.67,24.42,24.42,0,0,1-1.81-9.39v-13a1.73,1.73,0,0,0-.56-1.3,1.89,1.89,0,0,0-1.33-.52h-2.24a1.85,1.85,0,0,1-1.33-.56,1.77,1.77,0,0,1-.56-1.31v-4.58a1.77,1.77,0,0,1,.56-1.31,1.85,1.85,0,0,1,1.33-.56H495a1.71,1.71,0,0,1,1.29.56,1.81,1.81,0,0,1,.52,1.31v4.58a1.81,1.81,0,0,1-.52,1.31,1.71,1.71,0,0,1-1.29.56h-2.1a1.87,1.87,0,0,0-1.33.52,1.73,1.73,0,0,0-.56,1.3v13.17a15.75,15.75,0,0,0,1.12,5.92,15.48,15.48,0,0,0,3,4.8,14.4,14.4,0,0,0,4.42,3.23,12.54,12.54,0,0,0,5.4,1.19,12.81,12.81,0,0,0,7.15-2.17,1.51,1.51,0,0,0,.56-.63,1.86,1.86,0,0,0,.21-.84v-8.46a1.91,1.91,0,0,1,1.89-1.88h5.52a1.91,1.91,0,0,1,1.89,1.88V281A2,2,0,0,1,521.69,282.29Z" transform="translate(-256.38 -240.63)"/><path class="cls-1" d="M389.89,354.12a1.71,1.71,0,0,1-1.28.52h-7.49a2.29,2.29,0,0,1-1.12-.35c-.42-.23-.54-.35-.35-.35l-12.2-15-12.82,15a1.68,1.68,0,0,1-1.47.7H346a1.73,1.73,0,0,1-1.28-.52,1.75,1.75,0,0,1-.52-1.29V310.19a1.86,1.86,0,0,1,.52-1.33,1.66,1.66,0,0,1,1.28-.56h5.55a1.68,1.68,0,0,1,1.29.56,1.9,1.9,0,0,1,.52,1.33v30.89l13-13.7a1.76,1.76,0,0,1,2.8.07l12.06,13.28V310.19a1.86,1.86,0,0,1,.52-1.33,1.66,1.66,0,0,1,1.28-.56h5.55a1.64,1.64,0,0,1,1.28.56,1.87,1.87,0,0,1,.53,1.33v42.64A1.76,1.76,0,0,1,389.89,354.12Z" transform="translate(-256.38 -240.63)"/><path class="cls-1" d="M454.93,354.08a1.77,1.77,0,0,1-1.32.56H411a1.91,1.91,0,0,1-1.89-1.88v-4.62a1.68,1.68,0,0,1,.56-1.29,1.87,1.87,0,0,1,1.33-.53h14.81a1.68,1.68,0,0,0,1.3-.56,1.86,1.86,0,0,0,.52-1.33v-26a1.78,1.78,0,0,0-1.82-1.82H411a1.81,1.81,0,0,1-1.33-.56,1.77,1.77,0,0,1-.56-1.32v-4.57a1.77,1.77,0,0,1,.56-1.32,1.8,1.8,0,0,1,1.33-.55h42.57a1.8,1.8,0,0,1,1.32.55,1.77,1.77,0,0,1,.56,1.32v4.57a1.77,1.77,0,0,1-.56,1.32,1.81,1.81,0,0,1-1.32.56H438.79a1.78,1.78,0,0,0-1.82,1.82v26a1.86,1.86,0,0,0,.52,1.33,1.68,1.68,0,0,0,1.3.56h14.82a1.86,1.86,0,0,1,1.32.53,1.68,1.68,0,0,1,.56,1.29v4.62A1.77,1.77,0,0,1,454.93,354.08Z" transform="translate(-256.38 -240.63)"/><path class="cls-1" d="M521.9,316.06a1.83,1.83,0,0,1-1.33.56H490.09a4.13,4.13,0,0,0-3.28,1.55,6.08,6.08,0,0,0,0,7.59,4.13,4.13,0,0,0,3.28,1.55h21.25a1.72,1.72,0,0,1,1.3.56,1.87,1.87,0,0,1,.52,1.33v4.61a1.76,1.76,0,0,1-.52,1.3,1.8,1.8,0,0,1-1.3.52H491a4.12,4.12,0,0,0-3.28,1.57,5.69,5.69,0,0,0-1.33,3.81v11.75a1.91,1.91,0,0,1-1.89,1.88H479a1.91,1.91,0,0,1-1.89-1.88V341a13,13,0,0,1,1-5,14.36,14.36,0,0,1,2.55-4.13,13.4,13.4,0,0,1-3.32-15.23,13.43,13.43,0,0,1,3-4.37,14,14,0,0,1,4.44-2.94,13.72,13.72,0,0,1,5.41-1.08h30.48a1.9,1.9,0,0,1,1.89,1.87v4.57A1.81,1.81,0,0,1,521.9,316.06Z" transform="translate(-256.38 -240.63)"/><path class="cls-1" d="M585,354.08a1.79,1.79,0,0,1-1.33.56H541.05a1.91,1.91,0,0,1-1.89-1.88v-4.62a1.71,1.71,0,0,1,.56-1.29,1.9,1.9,0,0,1,1.33-.53h14.82a1.68,1.68,0,0,0,1.29-.56,1.87,1.87,0,0,0,.53-1.33v-26a1.79,1.79,0,0,0-1.82-1.82H541.05a1.85,1.85,0,0,1-1.33-.56,1.81,1.81,0,0,1-.56-1.32v-4.57a1.81,1.81,0,0,1,.56-1.32,1.84,1.84,0,0,1,1.33-.55h42.57a1.9,1.9,0,0,1,1.89,1.87v4.57a1.81,1.81,0,0,1-.56,1.32,1.83,1.83,0,0,1-1.33.56H568.8a1.78,1.78,0,0,0-1.81,1.82v26a1.86,1.86,0,0,0,.52,1.33,1.68,1.68,0,0,0,1.29.56h14.82a1.88,1.88,0,0,1,1.33.53,1.71,1.71,0,0,1,.56,1.29v4.62A1.81,1.81,0,0,1,585,354.08Z" transform="translate(-256.38 -240.63)"/><path class="cls-1" d="M263,267.12a23.73,23.73,0,0,1,1.9-9.44A24.11,24.11,0,0,1,270.1,250a24.71,24.71,0,0,1,7.77-5.2,24.6,24.6,0,0,1,19,0,24.39,24.39,0,0,1,7.75,5.2,24.92,24.92,0,0,1,5.23,7.71,24.05,24.05,0,0,1,0,18.88,24.34,24.34,0,0,1-13,12.85,24.6,24.6,0,0,1-19,0,25,25,0,0,1-7.77-5.17A23.81,23.81,0,0,1,263,267.12Zm9.24,0a16.08,16.08,0,0,0,1.19,6.15,15.75,15.75,0,0,0,3.26,5,15.42,15.42,0,0,0,4.83,3.36,14.76,14.76,0,0,0,11.75,0,15.49,15.49,0,0,0,4.82-3.36,16.21,16.21,0,0,0,0-22.36,15.92,15.92,0,0,0-4.82-3.39,14.33,14.33,0,0,0-11.75,0,15.59,15.59,0,0,0-8.09,8.42A16.08,16.08,0,0,0,272.2,267.12Z" transform="translate(-256.38 -240.63)"/><path class="cls-1" d="M256.94,251.57a1.88,1.88,0,0,1-.56-1.27,1.63,1.63,0,0,1,.5-1.27l3.81-3.82a1.67,1.67,0,0,1,1.27-.49,1.83,1.83,0,0,1,1.27.55l24.09,24.09,2.92-3,21.23-21.23a1.82,1.82,0,0,1,1.27-.55,1.62,1.62,0,0,1,1.27.49l3.82,3.82a1.65,1.65,0,0,1,.49,1.26,1.83,1.83,0,0,1-.55,1.27l-29.31,29.31a1.74,1.74,0,0,1-2.49,0l-4.91-4.91Z" transform="translate(-256.38 -240.63)"/><path class="cls-1" d="M287.31,345.67H264.8a1.84,1.84,0,0,0-1.3.5,1.66,1.66,0,0,0-.54,1.25v5.39a1.64,1.64,0,0,0,.54,1.25,1.85,1.85,0,0,0,1.3.51l35.71.07C297.66,352,289.14,349,287.31,345.67Z" transform="translate(-256.38 -240.63)"/><path class="cls-1" d="M317.3,290.22a26.75,26.75,0,0,0-9.78-11.87,22,22,0,0,1-6.93,7.17,17.26,17.26,0,0,1,7.76,8.48h0c1.76,4.16,2.74,15.57,1.1,28.5-1.74,13.64-5.49,21.1-8.25,22.27-1.55.65-6.15-1-13.55-11.53a148.35,148.35,0,0,1-13.6-24.74,17.4,17.4,0,0,1,.08-13.67,18.66,18.66,0,0,1,6.28-7.83,20.72,20.72,0,0,1-7.62-6.37,28.28,28.28,0,0,0-7.6,10.39,27,27,0,0,0-.09,21.26c2,4.65,18.43,42.36,35.41,42.36a11.36,11.36,0,0,0,4.47-.92c9-3.8,12.63-18.41,14.11-30C320.51,312.52,320.51,297.81,317.3,290.22Z" transform="translate(-256.38 -240.63)"/></svg>